<svg id="Layer_1" enable-background="new 0 0 66 66" height="512" viewBox="0 0 66 66" width="512" xmlns="http://www.w3.org/2000/svg"><g><g><path d="m32.8 44.7c-5.2 0-9.4-6.2-9.4-11.4s4.2-9.4 9.4-9.4 9.4 4.2 9.4 9.4-4.2 11.4-9.4 11.4zm0-18.8c-4.1 0-7.4 3.3-7.4 7.4 0 4.2 3.4 9.4 7.4 9.4 3.9 0 7.4-5.3 7.4-9.4s-3.3-7.4-7.4-7.4z"/></g><g><path d="m44 65.1h-22.7c-2.9 0-5.4-2.5-5.4-5.4v-1.3c0-2.9 1.6-5.5 4.1-6.9l5.7-3.1c1.2-.6 1.9-1.8 1.9-3.1v-3.2c0-.6.4-1 1-1s1 .4 1 1v3.2c0 2.1-1.1 3.9-2.9 4.9l-5.7 3.1c-1.9 1-3.1 3-3.1 5.1v1.3c0 1.8 1.6 3.4 3.4 3.4h22.7c1.8 0 3.4-1.6 3.4-3.4v-1.1c0-2.1-1.2-4.1-3.1-5.1l-5.7-3c-1.8-1-2.9-2.8-2.9-4.8v-3.2c0-.6.4-1 1-1s1 .4 1 1v3.2c0 1.2.7 2.4 1.9 3l5.7 3c2.6 1.4 4.1 4 4.1 6.9v1.1c0 2.9-2.5 5.4-5.4 5.4z"/></g><g><path d="m22.7 65c-.6 0-1-.4-1-1v-6.4c0-.6.4-1 1-1s1 .4 1 1v6.4c0 .6-.4 1-1 1z"/></g><g><path d="m42.8 65c-.6 0-1-.4-1-1v-6.4c0-.6.4-1 1-1s1 .4 1 1v6.4c0 .6-.4 1-1 1z"/></g><g><path d="m51.3 15.5c-.9 0-1.9-.3-2.7-.9-1-.7-1.7-1.8-2-3.1-.2-1.3 0-2.6.8-3.6 1.6-2.2 4.6-2.8 6.7-1.2 1.1.7 1.8 1.8 2 3.1s0 2.6-.8 3.6c-.9 1.3-2.5 2.1-4 2.1zm.1-7.7c-.2 0-.4 0-.5.1-.8.1-1.5.6-1.9 1.2s-.6 1.3-.4 2.1c.1.7.6 1.4 1.2 1.8s1.3.6 2.1.4c.7-.1 1.4-.6 1.8-1.2.4-.6.6-1.4.5-2.1s-.6-1.4-1.2-1.8c-.5-.3-1-.5-1.6-.5z"/></g><g><path d="m45.3 20.4c-.2 0-.4-.1-.6-.2-.5-.3-.6-.9-.3-1.4l3.9-5.7c.3-.5.9-.6 1.4-.3s.6.9.3 1.4l-3.9 5.8c-.2.2-.5.4-.8.4z"/></g><g><path d="m33 10.6c-2.6 0-4.8-2.2-4.8-4.8s2.2-4.8 4.8-4.8 4.8 2.2 4.8 4.8-2.2 4.8-4.8 4.8zm0-7.6c-1.5 0-2.8 1.3-2.8 2.8s1.3 2.8 2.8 2.8 2.8-1.3 2.8-2.8-1.3-2.8-2.8-2.8z"/></g><g><path d="m33 17.5c-.6 0-1-.4-1-1v-6.9c0-.6.4-1 1-1s1 .4 1 1v6.9c0 .6-.4 1-1 1z"/></g><g><path d="m57.7 33c-2.3 0-4.2-1.6-4.7-4-.2-1.3 0-2.6.8-3.6.7-1 1.8-1.7 3.1-2 2.6-.5 5.1 1.2 5.6 3.9.2 1.2 0 2.4-.7 3.5s-1.9 1.8-3.2 2.1c-.3 0-.6.1-.9.1zm.1-7.7c-.2 0-.4 0-.5.1-.8.1-1.4.6-1.9 1.2-.4.6-.6 1.3-.4 2.1.3 1.6 1.7 2.6 3.2 2.3.8-.1 1.5-.6 1.9-1.2s.6-1.3.4-2c-.3-1.5-1.4-2.5-2.7-2.5z"/></g><g><path d="m47.2 31c-.5 0-.9-.3-1-.8s.3-1.1.8-1.2l6.8-1.2c.5-.1 1.1.3 1.2.8s-.3 1.1-.8 1.2l-6.8 1.2c-.1 0-.1 0-.2 0z"/></g><g><path d="m58.1 52.2c-.9 0-1.9-.3-2.7-.8-1.1-.7-1.8-1.8-2.1-3.1s0-2.6.8-3.6c.7-1.1 1.8-1.8 3.1-2s2.5 0 3.6.8c1 .7 1.7 1.7 2 3s0 2.6-.7 3.7c-1 1.2-2.5 2-4 2zm-.1-7.7c-.2 0-.3 0-.5 0-.7.1-1.4.6-1.8 1.2s-.6 1.4-.5 2.1.6 1.4 1.2 1.8c1.4.9 3 .6 3.9-.7.4-.7.6-1.4.4-2.2-.1-.7-.6-1.3-1.1-1.7-.4-.3-1-.5-1.6-.5z"/></g><g><path d="m54.9 46.1c-.2 0-.4-.1-.6-.2l-5.7-3.9c-.5-.3-.6-.9-.3-1.4s.9-.6 1.4-.3l5.7 3.9c.5.3.6.9.3 1.4-.2.3-.5.5-.8.5z"/></g><g><path d="m14.7 15.5c-.3 0-.6 0-.9-.1-1.3-.2-2.4-1-3.1-2-.7-1.1-1-2.3-.8-3.6s1-2.4 2.1-3.1c1-.7 2.3-1 3.6-.7 1.3.2 2.4 1 3.1 2s1 2.3.8 3.6-1 2.4-2 3.1c-.9.5-1.8.8-2.8.8zm-.1-7.7c-.5 0-1.1.2-1.5.5-.7.4-1.1 1.1-1.2 1.8s0 1.5.5 2.1c.4.6 1.1 1 1.8 1.2.7.1 1.5 0 2.1-.4s1-1.1 1.2-1.8c.1-.7 0-1.5-.4-2.1s-1.1-1-1.8-1.2c-.3 0-.5-.1-.7-.1z"/></g><g><path d="m20.7 20.4c-.3 0-.6-.2-.8-.4l-3.9-5.7c-.3-.5-.2-1.1.3-1.4s1.1-.2 1.4.3l3.9 5.7c.3.5.2 1.1-.3 1.4-.2 0-.4.1-.6.1z"/></g><g><path d="m8.3 33c-.3 0-.6 0-.9-.1-1.3-.2-2.4-1-3.2-2.1-.7-1-1-2.3-.7-3.5.5-2.7 3-4.4 5.6-3.9 1.3.2 2.4.9 3.1 2 .7 1 1 2.3.8 3.6-.5 2.4-2.4 4-4.7 4zm-.1-7.7c-1.3 0-2.5 1-2.7 2.4-.1.7 0 1.4.4 2s1.1 1.1 1.9 1.2c1.5.3 2.9-.7 3.2-2.3.1-.7 0-1.5-.4-2.1s-1.1-1-1.9-1.2c-.2 0-.3 0-.5 0z"/></g><g><path d="m18.8 31c-.1 0-.1 0-.2 0l-6.8-1.2c-.5-.1-.9-.6-.8-1.2.1-.5.6-.9 1.2-.8l6.8 1.2c.5.1.9.6.8 1.2-.1.5-.5.8-1 .8z"/></g><g><path d="m8 52.2c-.3 0-.6 0-.9-.1-1.3-.2-2.4-1-3.1-2.1s-1-2.4-.7-3.7c.3-1.2 1-2.3 2-3 1.1-.7 2.3-1 3.6-.8s2.4 1 3.1 2.1c.7 1 1 2.3.8 3.6s-1 2.4-2.1 3.1c-.8.6-1.8.9-2.7.9zm0-7.7c-.6 0-1.1.2-1.6.5-.6.4-1 1-1.1 1.7-.2.8 0 1.5.4 2.2.4.6 1.1 1.1 1.8 1.2s1.5 0 2.1-.5c.7-.4 1.1-1.1 1.2-1.8s0-1.5-.5-2.1c-.4-.7-1.1-1.1-1.8-1.2-.2 0-.4 0-.5 0z"/></g><g><path d="m11.1 46.1c-.3 0-.6-.2-.8-.4-.3-.5-.2-1.1.3-1.4l5.7-3.9c.5-.3 1.1-.2 1.4.3s.2 1.1-.3 1.4l-5.7 3.9c-.2 0-.4.1-.6.1z"/></g></g></svg>